Coordinates
version=1
nRows=13
nColumns=40
inDegrees=yes

Units are S.I. units (second, meters, Newtons, ...)
Angles are in degrees.

endheader
time	pelvis_tilt	pelvis_list	pelvis_rotation	pelvis_tx	pelvis_ty	pelvis_tz	hip_flexion_r	hip_adduction_r	hip_rotation_r	knee_angle_r	knee_angle_r_beta	ankle_angle_r	subtalar_angle_r	mtp_angle_r	hip_flexion_l	hip_adduction_l	hip_rotation_l	knee_angle_l	knee_angle_l_beta	ankle_angle_l	subtalar_angle_l	mtp_angle_l	lumbar_extension	lumbar_bending	lumbar_rotation	arm_flex_r	arm_add_r	arm_rot_r	elbow_flex_r	pro_sup_r	wrist_flex_r	wrist_dev_r	arm_flex_l	arm_add_l	arm_rot_l	elbow_flex_l	pro_sup_l	wrist_flex_l	wrist_dev_l
      0.48000000	      2.30991208	      3.80547127	     -9.10447680	     -0.75768199	      0.89676277	     -1.41893751	     17.32634190	     -4.69519288	     -3.95149004	    -65.49822683	     -1.14315971	     -5.79166578	    -16.60272380	     12.61186192	      6.96131285	     -5.70795350	      5.99551583	    -21.74650771	     -0.37954816	     11.05787270	      2.39647538	     -2.47018075	     -7.12374553	     -2.28406530	     -0.30905665	      6.90205295	     -8.77424293	     19.37797244	     17.50850293	     89.95437384	      0.00000000	      0.00000000	     -3.14543601	      9.22976913	    -27.21585236	     11.58350900	     89.95437384	      0.00000000	      0.00000000
      0.49000000	      3.11618943	      2.98075791	     -8.68796233	     -0.74434446	      0.89926156	     -1.41906538	     17.27644656	     -3.63384539	     -4.42224378	    -63.95415861	     -1.11621064	     -3.54451901	    -16.12782229	     12.54812546	      4.37733856	     -5.17801550	      5.45917938	    -20.64997382	     -0.36041003	     11.50223079	      2.04458583	     -2.55057016	     -8.20179159	     -1.43094826	     -0.95451110	      6.60455296	     -8.91092784	     19.50694016	     16.95554405	     89.95437384	      0.00000000	      0.00000000	     -1.99152543	      9.39334279	    -24.94911572	     12.10125878	     89.95437384	      0.00000000	      0.00000000
      0.50000000	      2.83172653	      2.65755663	     -8.49664567	     -0.73206116	      0.89958976	     -1.41935109	     18.90790592	     -2.95726328	     -4.57298547	    -62.65890403	     -1.09360418	     -2.43808394	    -16.26121827	     12.40904871	      3.33735999	     -4.98379644	      5.11964713	    -19.91232776	     -0.34753568	     11.71280983	      1.70479140	     -2.61633894	     -7.99933193	     -0.93910830	     -1.22696080	      6.16676870	     -9.06065272	     19.59417365	     16.41054999	     89.95437384	      0.00000000	      0.00000000	     -0.83329820	      9.63454712	    -24.09297966	     12.58959979	     89.95437384	      0.00000000	      0.00000000
      0.51000000	      3.28318838	      2.04680243	     -8.09512074	     -0.71873517	      0.90099886	     -1.41971479	     19.25279967	     -2.24921363	     -5.19630429	    -60.68466530	     -1.05914721	     -1.44012849	    -16.27117230	     12.61461974	      1.28893992	     -4.52762764	      4.97321973	    -18.97787103	     -0.33122633	     12.03612261	      1.34016184	     -2.84837976	     -8.60002620	     -0.21535058	     -1.81706542	      5.75266238	     -9.24982232	     19.71110486	     16.01713949	     89.95437384	      0.00000000	      0.00000000	      0.18730779	      9.74231456	    -21.57262921	     13.20828345	     89.95437384	      0.00000000	      0.00000000
      0.52000000	      3.18503343	      1.73630401	     -7.91014389	     -0.70615002	      0.90101813	     -1.41991546	     20.44163645	     -1.61793874	     -5.30257211	    -58.77483673	     -1.02581442	     -0.45612791	    -16.35123586	     12.63602329	      0.06232399	     -4.31923676	      4.85593958	    -18.25995493	     -0.31869633	     12.40505505	      1.06307660	     -2.99402648	     -8.58080498	      0.22890611	     -2.06493408	      5.24883030	     -9.44463870	     19.82532246	     15.63982697	     89.95437384	      0.00000000	      0.00000000	      1.14363292	     10.14476409	    -21.51624102	     14.13236826	     89.95437384	      0.00000000	      0.00000000
      0.53000000	      3.48461686	      1.27010854	     -7.74814696	     -0.69315357	      0.90151979	     -1.41998562	     20.91932062	     -0.97807471	     -5.64167752	    -56.33807041	     -0.98328482	      0.20306004	    -16.33031225	     12.85686954	     -1.75804890	     -3.97453828	      4.88209380	    -17.31982835	     -0.30228803	     12.76832069	      0.72169331	     -3.19464336	     -9.01710712	      0.79755959	     -2.25606801	      4.78546568	     -9.66406582	     19.80351347	     15.31375348	     89.95437384	      0.00000000	      0.00000000	      2.30374564	     10.29094325	    -19.35941816	     14.93170332	     89.95437384	      0.00000000	      0.00000000
      0.54000000	      3.51765301	      0.99151799	     -7.40056822	     -0.68049747	      0.90119836	     -1.42024484	     21.72164681	     -0.54946183	     -5.97677254	    -53.88444063	     -0.94046090	      0.81035147	    -16.18820591	     13.04415737	     -3.12584343	     -3.75651193	      4.78164740	    -16.59041509	     -0.28955737	     13.03224476	      0.21208419	     -3.39368130	     -9.13592337	      1.19203439	     -2.58367123	      4.28688275	     -9.85232991	     20.12215184	     14.95889262	     89.95437384	      0.00000000	      0.00000000	      3.34724036	     10.64994453	    -18.75485310	     15.89237668	     89.95437384	      0.00000000	      0.00000000
      0.55000000	      3.63996121	      0.63291447	     -7.16665873	     -0.66764505	      0.90085665	     -1.42021968	     22.25615702	     -0.00389287	     -6.21523818	    -51.07339346	     -0.89139888	      1.33060774	    -15.92951678	     13.41144536	     -4.62504195	     -3.40402487	      5.09356980	    -15.83676507	     -0.27640369	     13.16209886	     -0.64412051	     -3.83201264	     -9.38940952	      1.66395070	     -2.90865379	      3.91846097	     -9.95812570	     19.84729140	     14.52731849	     89.95437384	      0.00000000	      0.00000000	      4.42073900	     10.68352357	    -15.63827869	     16.79483086	     89.95437384	      0.00000000	      0.00000000
      0.56000000	      3.67600910	      0.27448904	     -6.76987554	     -0.65492544	      0.90002352	     -1.42016000	     22.81323821	      0.47038620	     -6.57687017	    -48.10513714	     -0.83959303	      1.71835325	    -15.39740418	     13.36711008	     -5.88611712	     -3.03584735	      5.04899477	    -15.36585362	     -0.26818474	     13.60425565	     -1.06817758	     -4.01600597	     -9.50273148	      2.10630572	     -3.18381360	      3.42691883	    -10.07442441	     19.81259435	     14.14492077	     89.95437384	      0.00000000	      0.00000000	      5.56126783	     11.02697901	    -15.04545172	     17.78076243	     89.95437384	      0.00000000	      0.00000000
      0.57000000	      3.83603997	     -0.07156964	     -6.37948615	     -0.64204898	      0.89912774	     -1.41998527	     23.10003154	      0.91553959	     -6.85028483	    -44.93827256	     -0.78432082	      2.18790472	    -14.57291956	     13.19367164	     -7.32842684	     -2.65330217	      5.24669443	    -14.78576127	     -0.25806022	     13.78456297	     -1.76406174	     -4.25949724	     -9.76330530	      2.53427182	     -3.55990688	      3.07171139	    -10.11625331	     19.56633406	     13.67282888	     89.95437384	      0.00000000	      0.00000000	      6.51049108	     11.43900943	    -14.22482001	     19.07723502	     89.95437384	      0.00000000	      0.00000000
      0.58000000	      4.04550465	     -0.32878026	     -5.93566971	     -0.62921239	      0.89812927	     -1.41998529	     23.29359635	      1.15839510	     -7.23799781	    -41.69103469	     -0.72764582	      2.28314927	    -13.28775976	     12.81606083	     -8.73138114	     -2.32801596	      5.58207332	    -14.34675297	     -0.25039808	     13.79521020	     -2.82634265	     -4.59375194	    -10.06020688	      2.86402142	     -3.89632633	      2.66371672	    -10.17448326	     19.32729900	     13.31829166	     89.95437384	      0.00000000	      0.00000000	      7.67127944	     11.71373762	    -13.36716071	     20.04527472	     89.95437384	      0.00000000	      0.00000000
      0.59000000	      4.19009023	     -0.50916018	     -5.49208696	     -0.61625845	      0.89675079	     -1.41985002	     23.51374173	      1.28155553	     -7.73923620	    -38.41717577	     -0.67050621	      1.79524843	    -12.01318265	     11.54415035	     -9.98496124	     -1.95414184	      6.51307297	    -14.02265656	     -0.24474153	     13.49837690	     -4.73591830	     -5.72776418	    -10.23976516	      3.09395272	     -4.23545216	      2.27074521	    -10.16326874	     18.87108159	     12.85376149	     89.95437384	      0.00000000	      0.00000000	      8.74993685	     12.02388048	    -12.62084618	     21.10364003	     89.95437384	      0.00000000	      0.00000000
      0.60000000	      4.30482309	     -0.68953035	     -4.88454575	     -0.60346698	      0.89527043	     -1.41990043	     23.67786891	      1.32076937	     -8.30545851	    -35.11061439	     -0.61279582	      1.08068986	    -10.51584713	     11.23193667	    -11.11806549	     -1.67580383	      6.47075212	    -13.87117097	     -0.24209760	     13.72956370	     -5.14109696	     -6.00201050	    -10.40655798	      3.34094852	     -4.67861154	      1.86549764	    -10.17352836	     18.71786749	     12.50690558	     89.95437384	      0.00000000	      0.00000000	      9.85482646	     12.39590813	    -12.34779535	     22.23823214	     89.95437384	      0.00000000	      0.00000000
